<svg xmlns="http://www.w3.org/2000/svg" viewBox="0 0 64 64" aria-hidden="true">
  <circle cx="32" cy="32" r="30" fill="#25d366"/>
  <path fill="#ffffff" d="M18.8 48.5 21 40.6A16.5 16.5 0 1 1 27.6 46L18.8 48.5Zm9.2-7.6.6.4a11.2 11.2 0 0 0 5.8 1.6A11.5 11.5 0 1 0 24 36.7l.4.7-1.2 4.4 4.8-.9Zm12.5-6.3c.8.4 1.3.7 1.5 1 .2.3.2 1.6-.4 3-.6 1.3-3 2.5-4.3 2.6-1.1.1-2.5.1-4-.5-.9-.3-2.1-.7-3.6-1.6-6.3-3.4-10.4-9.5-10.7-10-.3-.4-2.5-3.3-2.5-6.3s1.6-4.5 2.2-5.1c.5-.6 1.2-.8 1.6-.8h1.2c.4 0 .9-.1 1.4 1.1.5 1.3 1.8 4.3 2 4.6.1.3.2.7 0 1.1-.2.4-.3.7-.7 1.1-.3.4-.7.8-1 1.1-.3.4-.7.8-.3 1.5.4.7 1.7 2.8 3.6 4.5 2.5 2.2 4.6 2.9 5.3 3.2.7.3 1.1.3 1.5-.2.4-.4 1.7-2 2.2-2.7.4-.7.9-.6 1.5-.4.6.2 3.8 1.8 4.5 2.1Z"/>
</svg>
